<?xml version="1.0" encoding="UTF-8"?>
<!DOCTYPE svg PUBLIC "-//W3C//DTD SVG 1.1//EN" "http://www.w3.org/Graphics/SVG/1.1/DTD/svg11.dtd">
<svg version="1.2" width="317.5mm" height="35.28mm" viewBox="0 0 31750 3528" preserveAspectRatio="xMidYMid" fill-rule="evenodd" stroke-width="28.222" stroke-linejoin="round" xmlns="http://www.w3.org/2000/svg" xmlns:ooo="http://xml.openoffice.org/svg/export" xmlns:xlink="http://www.w3.org/1999/xlink" xmlns:presentation="http://sun.com/xmlns/staroffice/presentation" xmlns:smil="http://www.w3.org/2001/SMIL20/" xmlns:anim="urn:oasis:names:tc:opendocument:xmlns:animation:1.0" xmlns:svg="urn:oasis:names:tc:opendocument:xmlns:svg-compatible:1.0" xml:space="preserve">
 <defs class="ClipPathGroup">
  <clipPath id="presentation_clip_path" clipPathUnits="userSpaceOnUse">
   <rect x="0" y="0" width="31750" height="3528"/>
  </clipPath>
  <clipPath id="presentation_clip_path_shrink" clipPathUnits="userSpaceOnUse">
   <rect x="31" y="3" width="31687" height="3521"/>
  </clipPath>
 </defs>
 <defs class="TextShapeIndex">
  <g ooo:slide="id1" ooo:id-list="id3 id4 id5 id6 id7 id8 id9 id10 id11 id12 id13 id14 id15 id16 id17 id18 id19 id20 id21 id22 id23 id24 id25 id26 id27 id28 id29 id30 id31 id32 id33 id34 id35 id36 id37 id38 id39 id40 id41 id42 id43"/>
 </defs>
 <defs class="EmbeddedBulletChars">
  <g id="bullet-char-template-57356" transform="scale(0.00048828125,-0.00048828125)">
   <path d="M 580,1141 L 1163,571 580,0 -4,571 580,1141 Z"/>
  </g>
  <g id="bullet-char-template-57354" transform="scale(0.00048828125,-0.00048828125)">
   <path d="M 8,1128 L 1137,1128 1137,0 8,0 8,1128 Z"/>
  </g>
  <g id="bullet-char-template-10146" transform="scale(0.00048828125,-0.00048828125)">
   <path d="M 174,0 L 602,739 174,1481 1456,739 174,0 Z M 1358,739 L 309,1346 659,739 1358,739 Z"/>
  </g>
  <g id="bullet-char-template-10132" transform="scale(0.00048828125,-0.00048828125)">
   <path d="M 2015,739 L 1276,0 717,0 1260,543 174,543 174,936 1260,936 717,1481 1274,1481 2015,739 Z"/>
  </g>
  <g id="bullet-char-template-10007" transform="scale(0.00048828125,-0.00048828125)">
   <path d="M 0,-2 C -7,14 -16,27 -25,37 L 356,567 C 262,823 215,952 215,954 215,979 228,992 255,992 264,992 276,990 289,987 310,991 331,999 354,1012 L 381,999 492,748 772,1049 836,1024 860,1049 C 881,1039 901,1025 922,1006 886,937 835,863 770,784 769,783 710,716 594,584 L 774,223 C 774,196 753,168 711,139 L 727,119 C 717,90 699,76 672,76 641,76 570,178 457,381 L 164,-76 C 142,-110 111,-127 72,-127 30,-127 9,-110 8,-76 1,-67 -2,-52 -2,-32 -2,-23 -1,-13 0,-2 Z"/>
  </g>
  <g id="bullet-char-template-10004" transform="scale(0.00048828125,-0.00048828125)">
   <path d="M 285,-33 C 182,-33 111,30 74,156 52,228 41,333 41,471 41,549 55,616 82,672 116,743 169,778 240,778 293,778 328,747 346,684 L 369,508 C 377,444 397,411 428,410 L 1163,1116 C 1174,1127 1196,1133 1229,1133 1271,1133 1292,1118 1292,1087 L 1292,965 C 1292,929 1282,901 1262,881 L 442,47 C 390,-6 338,-33 285,-33 Z"/>
  </g>
  <g id="bullet-char-template-9679" transform="scale(0.00048828125,-0.00048828125)">
   <path d="M 813,0 C 632,0 489,54 383,161 276,268 223,411 223,592 223,773 276,916 383,1023 489,1130 632,1184 813,1184 992,1184 1136,1130 1245,1023 1353,916 1407,772 1407,592 1407,412 1353,268 1245,161 1136,54 992,0 813,0 Z"/>
  </g>
  <g id="bullet-char-template-8226" transform="scale(0.00048828125,-0.00048828125)">
   <path d="M 346,457 C 273,457 209,483 155,535 101,586 74,649 74,723 74,796 101,859 155,911 209,963 273,989 346,989 419,989 480,963 531,910 582,859 608,796 608,723 608,648 583,586 532,535 482,483 420,457 346,457 Z"/>
  </g>
  <g id="bullet-char-template-8211" transform="scale(0.00048828125,-0.00048828125)">
   <path d="M -4,459 L 1135,459 1135,606 -4,606 -4,459 Z"/>
  </g>
  <g id="bullet-char-template-61548" transform="scale(0.00048828125,-0.00048828125)">
   <path d="M 173,740 C 173,903 231,1043 346,1159 462,1274 601,1332 765,1332 928,1332 1067,1274 1183,1159 1299,1043 1357,903 1357,740 1357,577 1299,437 1183,322 1067,206 928,148 765,148 601,148 462,206 346,322 231,437 173,577 173,740 Z"/>
  </g>
 </defs>
 <g>
  <g id="id2" class="Master_Slide">
   <g id="bg-id2" class="Background"/>
   <g id="bo-id2" class="BackgroundObjects"/>
  </g>
 </g>
 <g class="SlideGroup">
  <g>
   <g id="container-id1">
    <g id="id1" class="Slide" clip-path="url(#presentation_clip_path)">
     <g class="Page">
      <g class="com.sun.star.drawing.ClosedBezierShape">
       <g id="id3">
        <rect class="BoundingBox" stroke="none" fill="none" x="54741" y="553" width="8759" height="9722"/>
        <path fill="rgb(238,238,238)" stroke="none" d="M 63248,2790 L 59394,645 C 59318,584 59227,554 59120,554 59014,554 58922,584 58847,645 L 54992,2790 C 54825,2881 54741,3026 54741,3223 L 54741,7604 C 54741,7802 54825,7946 54992,8038 L 58847,10182 C 58922,10243 59014,10273 59120,10274 59227,10273 59318,10243 59394,10182 L 63248,8038 C 63416,7946 63499,7802 63499,7604 L 63499,3223 C 63499,3026 63416,2881 63248,2790 Z M 58845,7330 L 56361,7330 56361,6828 56794,6395 C 57114,6045 57380,5741 57593,5482 57882,5117 58026,4859 58026,4707 58026,4463 57943,4304 57776,4228 57699,4182 57616,4167 57525,4182 L 57410,4205 C 57304,4235 57220,4288 57160,4364 57068,4471 57015,4608 57000,4775 L 56270,4821 56293,4615 C 56323,4463 56368,4326 56429,4205 56536,4022 56673,3885 56840,3794 57038,3657 57281,3589 57570,3589 58072,3589 58414,3741 58597,4045 58703,4212 58757,4422 58757,4672 58757,4923 58627,5231 58369,5596 58171,5840 57928,6106 57639,6395 L 57251,6760 58845,6760 58845,7330 Z M 61788,6144 C 61788,6478 61667,6767 61423,7011 61181,7254 60888,7376 60546,7376 60204,7376 59912,7254 59669,7011 59426,6767 59304,6478 59304,6144 L 59304,4844 C 59304,4494 59426,4197 59669,3954 59912,3710 60204,3589 60546,3589 60888,3589 61181,3710 61423,3954 61667,4197 61788,4494 61788,4844 L 61788,6144 Z M 61058,4821 L 61058,6167 C 61058,6304 61009,6422 60910,6520 60811,6619 60690,6669 60546,6669 60402,6669 60281,6619 60182,6520 60083,6422 60034,6304 60034,6167 L 60034,4821 C 60034,4669 60083,4543 60182,4444 60281,4345 60402,4296 60546,4296 60690,4296 60811,4345 60910,4444 61009,4543 61058,4669 61058,4821 Z "/>
       </g>
      </g>
      <g class="com.sun.star.drawing.ClosedBezierShape">
       <g id="id4">
        <rect class="BoundingBox" stroke="none" fill="none" x="33578" y="7008" width="3711" height="3576"/>
        <path fill="rgb(153,0,31)" stroke="none" d="M 34000,7699 C 33996,7559 34026,7447 34088,7363 34091,7424 34100,7475 34117,7514 34158,7321 34257,7169 34411,7056 34395,7108 34388,7149 34391,7179 34393,7175 34401,7169 34414,7158 34426,7148 34435,7141 34440,7136 34445,7131 34454,7125 34466,7117 34479,7107 34490,7099 34500,7094 34510,7089 34523,7082 34538,7072 34553,7064 34569,7058 34585,7053 34601,7047 34618,7041 34638,7034 34658,7029 34679,7024 34701,7021 34799,7001 34897,7004 34996,7028 35256,7091 35418,7259 35481,7533 35514,7670 35495,7825 35423,7996 35385,8087 35337,8169 35279,8242 35277,8236 35270,8230 35260,8221 35250,8212 35242,8206 35238,8202 35201,8167 35159,8126 35111,8081 35048,8022 35013,7988 35007,7979 34999,7969 34989,7956 34977,7941 34970,7935 34970,7927 34977,7917 35036,7819 35059,7717 35047,7608 35038,7533 35011,7472 34967,7425 34916,7372 34853,7346 34780,7348 34707,7349 34645,7376 34595,7431 34519,7514 34493,7615 34517,7735 34520,7745 34520,7754 34517,7762 34492,7862 34486,7959 34500,8052 L 34500,8064 34500,8071 C 34349,7995 34248,7873 34198,7707 34138,7835 34122,7961 34153,8085 34057,7993 34006,7864 34000,7699 Z M 37277,8559 C 37282,8564 37286,8567 37288,8568 L 37288,8572 C 37204,8552 37100,8555 36976,8580 36910,8594 36848,8615 36791,8644 36763,8659 36744,8670 36734,8676 36668,8647 36628,8632 36615,8629 36442,8591 36297,8638 36179,8769 36058,8905 35949,9078 35854,9289 L 35844,9307 C 35844,9309 35844,9310 35842,9310 35837,9307 35804,9280 35742,9230 35680,9180 35629,9147 35589,9132 L 35591,9128 C 35592,9125 35593,9123 35595,9122 35751,8908 35925,8744 36118,8631 36235,8562 36355,8519 36477,8502 36497,8500 36510,8498 36515,8495 L 36425,8495 C 36293,8506 36157,8554 36014,8637 35909,8698 35823,8768 35759,8844 35759,8846 35758,8848 35755,8850 35753,8853 35752,8854 35752,8856 L 35746,8850 C 35821,8640 35956,8469 36149,8338 L 36152,8342 C 36142,8357 36135,8369 36130,8378 36112,8408 36100,8431 36094,8448 36085,8468 36089,8479 36105,8482 36122,8485 36145,8475 36177,8449 36193,8438 36217,8420 36247,8395 36277,8370 36300,8351 36315,8340 36330,8329 36350,8315 36375,8300 36401,8285 36425,8272 36447,8262 36470,8254 36494,8247 36519,8243 36522,8243 36524,8243 36527,8243 36529,8243 36531,8243 36532,8242 L 36549,8242 36534,8253 C 36524,8259 36511,8267 36496,8278 36481,8288 36472,8294 36468,8296 36464,8299 36459,8303 36453,8308 36447,8313 36442,8317 36439,8321 36437,8325 36433,8330 36428,8336 36418,8350 36417,8362 36425,8372 36432,8382 36445,8386 36462,8383 36475,8381 36493,8376 36515,8368 36595,8341 36662,8325 36717,8323 36808,8318 36901,8334 36995,8372 37102,8416 37196,8479 37277,8559 Z M 35633,9784 C 35644,9793 35646,9802 35640,9812 35440,10212 35169,10441 34829,10502 34630,10536 34449,10516 34287,10441 34149,10381 34039,10299 33956,10194 33951,10187 33944,10177 33935,10164 33926,10151 33920,10141 33916,10134 33911,10179 33914,10230 33926,10287 L 33922,10290 C 33878,10244 33856,10220 33856,10219 33779,10122 33723,10000 33688,9854 33668,9773 33655,9698 33652,9627 33648,9556 33652,9490 33663,9427 33674,9364 33685,9314 33695,9279 33705,9244 33721,9200 33742,9147 33688,9177 33633,9215 33578,9260 33649,9061 33779,8864 33969,8670 33986,8684 33993,8702 33990,8722 33987,8731 33980,8780 33967,8871 33955,8962 33949,9016 33950,9034 34080,8904 34231,8802 34402,8727 34354,8798 34327,8885 34321,8988 34430,8887 34538,8854 34644,8890 34641,8890 34633,8899 34618,8916 34602,8934 34591,8946 34584,8954 34576,8962 34565,8975 34549,8996 34532,9016 34518,9034 34508,9051 34498,9064 34485,9084 34470,9109 34455,9134 34442,9158 34432,9181 34422,9204 34412,9228 34402,9255 34392,9282 34383,9311 34375,9340 34336,9505 34355,9650 34432,9776 34510,9906 34625,9971 34776,9971 34851,9971 34930,9943 35015,9888 35139,9805 35242,9694 35323,9555 35330,9543 35334,9536 35336,9534 35340,9537 35439,9620 35633,9784 Z M 36833,9459 C 36980,9507 37082,9597 37139,9731 37172,9812 37177,9894 37154,9979 37131,10063 37086,10134 37018,10192 36907,10287 36774,10327 36619,10313 36614,10313 36610,10314 36606,10315 36717,10394 36835,10419 36961,10389 36959,10392 36953,10399 36942,10410 36932,10420 36925,10428 36921,10434 36843,10503 36743,10549 36621,10572 36480,10598 36354,10576 36243,10506 36132,10435 36060,10325 36027,10175 36027,10174 36026,10159 36022,10132 35980,10163 35956,10216 35950,10289 35944,10362 35966,10431 36016,10496 36005,10493 35997,10490 35992,10489 35917,10460 35859,10413 35816,10349 35773,10285 35754,10213 35757,10132 35757,10118 35758,10092 35761,10054 35764,10016 35765,9991 35765,9979 35765,9964 35764,9942 35761,9914 35760,9887 35755,9865 35748,9850 35740,9835 35730,9817 35718,9797 35705,9777 35688,9758 35666,9740 35627,9709 35570,9661 35495,9597 35419,9533 35361,9485 35323,9453 35256,9398 35216,9339 35203,9277 35197,9250 35193,9217 35190,9179 35186,9139 35168,9104 35135,9077 L 35039,8998 C 34970,8938 34953,8869 34988,8790 35006,8875 35058,8923 35147,8931 35152,8933 35166,8934 35189,8935 35211,8936 35228,8938 35239,8941 35295,8948 35328,8982 35340,9041 35341,9048 35343,9060 35347,9075 35351,9090 35353,9102 35355,9111 35365,9149 35389,9168 35426,9169 35436,9169 35452,9171 35474,9173 35495,9176 35512,9177 35523,9177 35572,9181 35619,9201 35665,9238 35755,9313 35892,9425 36073,9574 36121,9613 36166,9633 36209,9635 36267,9637 36314,9615 36350,9569 36387,9522 36398,9470 36383,9412 36380,9404 36380,9398 36381,9393 36404,9410 36420,9424 36430,9434 36479,9485 36510,9547 36523,9623 36535,9699 36524,9766 36491,9826 36484,9836 36474,9849 36460,9867 36447,9885 36438,9896 36434,9901 36441,9904 36448,9905 36455,9905 36560,9915 36651,9893 36727,9841 36782,9803 36814,9753 36822,9691 36829,9629 36810,9573 36765,9523 36740,9493 36695,9465 36632,9440 36689,9429 36756,9435 36833,9459 Z M 34116,8261 C 34085,8206 34033,8157 33962,8111 34066,8107 34159,8116 34240,8138 34191,8055 34180,7964 34204,7867 34236,7940 34291,8003 34368,8055 34401,8076 34456,8109 34534,8155 34612,8200 34666,8236 34695,8264 34699,8268 34721,8293 34761,8340 34759,8336 34756,8329 34753,8319 34751,8309 34749,8302 34746,8298 34716,8234 34664,8176 34589,8124 34576,8117 34568,8106 34565,8092 34545,8014 34543,7927 34559,7831 34563,7815 34573,7777 34591,7716 34596,7702 34605,7687 34619,7671 34621,7671 34621,7678 34621,7692 34621,7707 34621,7717 34621,7722 34621,7727 34624,7737 34629,7754 34631,7770 34635,7784 34638,7796 34642,7807 34648,7821 34655,7839 34663,7857 34670,7873 34678,7888 34688,7903 34700,7920 34712,7937 34725,7955 34739,7973 34756,7992 34781,8019 34859,8095 34992,8221 35083,8306 35142,8369 35171,8408 35181,8423 35190,8434 35198,8440 35170,8366 35113,8287 35028,8204 34981,8160 34913,8096 34824,8013 34805,7996 34793,7971 34789,7937 34781,7857 34790,7786 34818,7726 34819,7723 34824,7716 34831,7703 34838,7748 34841,7775 34842,7784 34852,7832 34873,7879 34903,7926 34932,7973 34962,8011 34992,8041 35022,8071 35075,8123 35153,8194 35167,8208 35179,8219 35186,8226 35271,8307 35330,8381 35364,8448 35401,8517 35414,8586 35404,8654 35404,8661 35406,8666 35411,8669 35458,8689 35481,8722 35479,8767 35527,8749 35566,8716 35595,8667 35611,8740 35599,8820 35559,8905 35518,8991 35467,9048 35404,9077 35404,9076 35404,9070 35406,9058 35407,9047 35408,9037 35408,9030 35408,9022 35408,9011 35408,8996 35408,8983 35404,8972 35396,8962 35391,8952 35385,8941 35377,8929 35370,8918 35358,8909 35341,8901 35326,8894 35309,8887 35288,8882 35286,8882 35233,8878 35130,8869 35137,8855 35143,8844 35147,8837 35152,8830 35157,8818 35162,8803 35167,8790 35169,8780 35169,8773 35169,8765 35169,8756 35169,8746 35169,8736 35166,8729 35160,8724 35154,8719 35145,8715 35134,8712 35039,8700 34954,8698 34878,8708 34803,8719 34753,8731 34729,8744 34795,8747 34849,8754 34894,8767 34885,8797 34871,8841 34854,8899 34848,8925 34851,8946 34863,8964 34876,8981 34894,8982 34918,8965 34921,8963 34924,8959 34929,8954 34934,8949 34938,8946 34941,8946 34928,9022 34922,9065 34922,9075 34923,9105 34936,9123 34962,9128 34987,9133 35010,9132 35032,9126 35023,9168 34982,9209 34909,9251 34835,9293 34771,9311 34714,9306 34768,9270 34805,9229 34825,9181 34765,9189 34720,9194 34691,9198 L 34689,9192 C 34721,9168 34744,9137 34759,9100 34789,9028 34787,8965 34752,8913 34716,8860 34661,8829 34585,8822 34520,8816 34460,8828 34406,8860 34447,8755 34523,8675 34633,8620 34580,8604 34522,8590 34461,8576 34553,8518 34661,8484 34786,8474 34777,8466 34753,8463 34716,8463 34678,8463 34635,8466 34587,8474 34539,8482 34488,8498 34432,8523 34378,8548 34333,8581 34296,8620 34333,8626 34386,8635 34457,8648 34308,8692 34163,8775 34022,8897 34021,8895 34024,8881 34032,8856 34039,8831 34043,8811 34045,8797 34050,8758 34050,8726 34045,8703 34033,8634 33988,8597 33909,8589 33866,8585 33812,8588 33746,8597 L 33725,8597 C 33767,8555 33833,8511 33922,8463 34011,8415 34069,8382 34096,8364 34117,8349 34129,8334 34132,8319 34134,8304 34129,8285 34116,8261 Z M 35012,8448 C 35024,8503 35045,8546 35075,8576 35105,8606 35140,8620 35179,8616 35147,8537 35092,8480 35012,8448 Z "/>
       </g>
      </g>
      <g class="Group">
       <g class="com.sun.star.drawing.ClosedBezierShape">
        <g id="id5">
         <rect class="BoundingBox" stroke="none" fill="none" x="15421" y="8317" width="1354" height="2267"/>
         <path fill="rgb(153,0,31)" stroke="none" d="M 16009,8317 C 16316,8317 16525,8429 16635,8655 16678,8767 16699,8878 16699,8986 16699,9281 16611,9474 16439,9563 L 16439,9569 C 16482,9801 16542,10064 16623,10355 16653,10466 16700,10521 16762,10521 L 16774,10540 16774,10564 C 16774,10570 16768,10576 16756,10583 L 16294,10583 C 16256,10576 16237,10535 16237,10459 16169,10201 16125,9942 16104,9680 L 16104,9674 15933,9674 15933,10397 C 15933,10466 15967,10510 16034,10527 16039,10535 16041,10543 16041,10553 L 16041,10564 C 16041,10570 16034,10576 16022,10583 L 15440,10583 C 15433,10583 15428,10576 15421,10564 L 15421,10557 C 15421,10537 15447,10518 15497,10497 15522,10474 15535,10434 15535,10380 L 15535,8538 C 15535,8448 15502,8403 15433,8403 L 15421,8385 15421,8379 C 15421,8355 15445,8343 15491,8343 15581,8329 15753,8322 16009,8317 Z M 15933,8655 L 15933,9354 C 15935,9362 15938,9367 15946,9367 L 16009,9361 16053,9367 C 16136,9367 16204,9312 16256,9201 16273,9133 16281,9088 16281,9066 L 16281,8937 C 16258,8745 16185,8649 16060,8649 16060,8644 16041,8643 16003,8643 L 15946,8643 C 15938,8644 15933,8647 15933,8655 Z "/>
        </g>
       </g>
       <g class="com.sun.star.drawing.ClosedBezierShape">
        <g id="id6">
         <rect class="BoundingBox" stroke="none" fill="none" x="16928" y="8317" width="1166" height="2267"/>
         <path fill="rgb(153,0,31)" stroke="none" d="M 17517,8317 C 17759,8317 17927,8472 18023,8781 18069,8965 18093,9150 18093,9339 L 18093,9479 C 18093,10214 17898,10583 17511,10583 17123,10583 16929,10187 16929,9396 16929,8810 17066,8461 17340,8348 17398,8328 17458,8317 17517,8317 Z M 17315,9218 C 17315,9226 17316,9231 17321,9231 17316,9274 17315,9305 17315,9325 L 17315,9498 C 17315,9522 17316,9557 17321,9599 17316,9607 17315,9614 17315,9618 17332,9914 17354,10091 17384,10151 17417,10227 17453,10265 17492,10265 L 17542,10265 C 17633,10265 17688,10078 17707,9707 17707,9702 17705,9700 17700,9700 17700,9697 17702,9684 17707,9662 17707,9610 17709,9523 17713,9402 17709,9299 17707,9221 17707,9167 L 17700,9155 17707,9142 C 17691,8923 17668,8779 17637,8710 17607,8665 17573,8635 17536,8622 L 17517,8622 C 17412,8622 17348,8761 17328,9041 17328,9079 17323,9138 17315,9218 Z "/>
        </g>
       </g>
       <g class="com.sun.star.drawing.ClosedBezierShape">
        <g id="id7">
         <rect class="BoundingBox" stroke="none" fill="none" x="18228" y="8317" width="1102" height="2267"/>
         <path fill="rgb(153,0,31)" stroke="none" d="M 18247,8317 L 18797,8317 C 18822,8317 18835,8329 18835,8355 L 18835,8361 C 18835,8369 18808,8387 18753,8413 18733,8442 18721,8469 18721,8496 L 18721,10238 19132,10238 C 19185,10238 19232,10201 19278,10129 19311,10132 19329,10138 19329,10150 19279,10438 19248,10583 19233,10583 19191,10583 19170,10578 19170,10570 19107,10575 19061,10576 19031,10576 L 18247,10576 C 18240,10576 18235,10570 18228,10557 L 18228,10526 18304,10474 C 18321,10459 18329,10438 18329,10411 L 18329,8477 C 18329,8426 18298,8391 18235,8374 L 18228,8361 18228,8336 C 18228,8329 18235,8324 18247,8317 Z "/>
        </g>
       </g>
       <g class="com.sun.star.drawing.ClosedBezierShape">
        <g id="id8">
         <rect class="BoundingBox" stroke="none" fill="none" x="19464" y="8317" width="1102" height="2267"/>
         <path fill="rgb(153,0,31)" stroke="none" d="M 19483,8317 L 20033,8317 C 20058,8317 20071,8329 20071,8355 L 20071,8361 C 20071,8369 20044,8387 19989,8413 19969,8442 19957,8469 19957,8496 L 19957,10238 20368,10238 C 20421,10238 20468,10201 20514,10129 20547,10132 20565,10138 20565,10150 20515,10438 20484,10583 20469,10583 20427,10583 20406,10578 20406,10570 20343,10575 20297,10576 20267,10576 L 19483,10576 C 19476,10576 19471,10570 19464,10557 L 19464,10526 19540,10474 C 19557,10459 19565,10438 19565,10411 L 19565,8477 C 19565,8426 19534,8391 19471,8374 L 19464,8361 19464,8336 C 19464,8329 19471,8324 19483,8317 Z "/>
        </g>
       </g>
       <g class="com.sun.star.drawing.ClosedBezierShape">
        <g id="id9">
         <rect class="BoundingBox" stroke="none" fill="none" x="20699" y="8317" width="987" height="2267"/>
         <path fill="rgb(153,0,31)" stroke="none" d="M 21237,8317 C 21252,8317 21340,8329 21496,8355 21548,8347 21578,8343 21584,8343 L 21654,8739 C 21640,8752 21614,8758 21578,8758 21536,8671 21439,8627 21287,8627 21175,8627 21111,8693 21098,8826 L 21098,8839 C 21098,8937 21148,9040 21249,9148 21540,9476 21685,9737 21685,9931 L 21685,9987 C 21685,10266 21572,10452 21344,10545 21264,10570 21192,10583 21129,10583 21101,10583 21007,10570 20851,10545 20845,10545 20814,10546 20762,10551 20745,10457 20725,10304 20699,10093 20730,10080 20754,10074 20769,10074 20799,10201 20893,10266 21053,10266 L 21085,10266 C 21192,10266 21264,10208 21300,10093 21305,10066 21306,10039 21306,10012 21306,9847 21213,9672 21028,9484 20813,9243 20706,9028 20706,8839 20706,8628 20792,8473 20965,8372 21050,8336 21140,8317 21237,8317 Z "/>
        </g>
       </g>
       <g class="com.sun.star.drawing.ClosedBezierShape">
        <g id="id10">
         <rect class="BoundingBox" stroke="none" fill="none" x="21821" y="8317" width="1159" height="2267"/>
         <path fill="rgb(153,0,31)" stroke="none" d="M 22207,8317 L 22295,8317 C 22632,8317 22847,8477 22941,8794 22966,8887 22979,8989 22979,9100 22979,9462 22865,9699 22637,9813 22537,9846 22453,9863 22384,9863 L 22327,9863 22314,9870 22321,9914 22321,10347 C 22321,10364 22319,10388 22314,10416 22328,10490 22365,10526 22422,10526 L 22428,10538 22428,10564 C 22428,10570 22422,10576 22409,10583 L 21840,10583 C 21833,10583 21828,10576 21821,10564 L 21821,10538 21884,10494 C 21900,10494 21914,10466 21929,10411 L 21922,10334 21922,8609 C 21922,8586 21924,8557 21929,8521 21917,8436 21884,8393 21828,8393 L 21821,8380 21821,8368 C 21821,8343 21832,8329 21852,8329 22015,8322 22132,8317 22207,8317 Z M 22378,8641 L 22321,8641 C 22321,8649 22319,8654 22314,8654 L 22321,8685 22321,9476 22314,9539 22327,9545 22365,9545 C 22509,9545 22580,9416 22580,9157 L 22580,9037 C 22580,8820 22523,8690 22409,8647 22401,8643 22391,8641 22378,8641 Z "/>
        </g>
       </g>
       <g class="com.sun.star.drawing.ClosedBezierShape">
        <g id="id11">
         <rect class="BoundingBox" stroke="none" fill="none" x="23114" y="8324" width="1076" height="2260"/>
         <path fill="rgb(153,0,31)" stroke="none" d="M 24095,8324 C 24132,8503 24159,8642 24177,8745 24143,8754 24126,8760 24126,8764 24121,8764 24099,8738 24062,8686 24048,8673 24029,8662 24006,8654 L 23930,8661 23652,8661 23607,8654 23601,8667 23601,9183 23898,9183 C 23995,9178 24043,9146 24043,9088 L 24062,9075 24095,9075 C 24100,9075 24107,9081 24113,9094 L 24113,9590 C 24113,9597 24107,9603 24095,9609 L 24062,9609 C 24055,9609 24042,9584 24024,9533 23996,9513 23963,9502 23923,9502 L 23607,9502 23607,10246 23974,10246 C 24037,10246 24090,10210 24132,10138 24159,10138 24178,10145 24189,10163 24146,10404 24119,10545 24107,10583 24074,10571 24037,10564 23999,10564 L 23133,10564 C 23126,10564 23121,10558 23114,10545 L 23114,10520 C 23114,10512 23138,10500 23184,10482 23204,10449 23215,10422 23215,10399 L 23215,8496 C 23215,8444 23184,8410 23121,8394 L 23114,8381 23114,8355 C 23114,8350 23121,8343 23133,8336 L 23993,8336 C 24055,8329 24088,8324 24095,8324 Z "/>
        </g>
       </g>
       <g class="com.sun.star.drawing.ClosedBezierShape">
        <g id="id12">
         <rect class="BoundingBox" stroke="none" fill="none" x="24324" y="8317" width="1102" height="2267"/>
         <path fill="rgb(153,0,31)" stroke="none" d="M 24343,8317 L 24893,8317 C 24918,8317 24931,8329 24931,8355 L 24931,8361 C 24931,8369 24904,8387 24849,8413 24829,8442 24817,8469 24817,8496 L 24817,10238 25228,10238 C 25281,10238 25328,10201 25374,10129 25407,10132 25425,10138 25425,10150 25375,10438 25344,10583 25329,10583 25287,10583 25266,10578 25266,10570 25203,10575 25157,10576 25127,10576 L 24343,10576 C 24336,10576 24331,10570 24324,10557 L 24324,10526 24400,10474 C 24417,10459 24425,10438 24425,10411 L 24425,8477 C 24425,8426 24394,8391 24331,8374 L 24324,8361 24324,8336 C 24324,8329 24331,8324 24343,8317 Z "/>
        </g>
       </g>
       <g class="com.sun.star.drawing.ClosedBezierShape">
        <g id="id13">
         <rect class="BoundingBox" stroke="none" fill="none" x="25559" y="8317" width="987" height="2267"/>
         <path fill="rgb(153,0,31)" stroke="none" d="M 26097,8317 C 26112,8317 26200,8329 26356,8355 26408,8347 26438,8343 26444,8343 L 26514,8739 C 26500,8752 26474,8758 26438,8758 26396,8671 26299,8627 26147,8627 26035,8627 25971,8693 25958,8826 L 25958,8839 C 25958,8937 26008,9040 26109,9148 26400,9476 26545,9737 26545,9931 L 26545,9987 C 26545,10266 26432,10452 26204,10545 26124,10570 26052,10583 25989,10583 25961,10583 25867,10570 25711,10545 25705,10545 25674,10546 25622,10551 25605,10457 25585,10304 25559,10093 25590,10080 25614,10074 25629,10074 25659,10201 25753,10266 25913,10266 L 25945,10266 C 26052,10266 26124,10208 26160,10093 26165,10066 26166,10039 26166,10012 26166,9847 26073,9672 25888,9484 25673,9243 25566,9028 25566,8839 25566,8628 25652,8473 25825,8372 25910,8336 26000,8317 26097,8317 Z "/>
        </g>
       </g>
       <g class="com.sun.star.drawing.ClosedBezierShape">
        <g id="id14">
         <rect class="BoundingBox" stroke="none" fill="none" x="26681" y="8317" width="1159" height="2267"/>
         <path fill="rgb(153,0,31)" stroke="none" d="M 27067,8317 L 27155,8317 C 27492,8317 27707,8477 27801,8794 27826,8887 27839,8989 27839,9100 27839,9462 27725,9699 27497,9813 27397,9846 27313,9863 27244,9863 L 27187,9863 27174,9870 27181,9914 27181,10347 C 27181,10364 27179,10388 27174,10416 27188,10490 27225,10526 27282,10526 L 27288,10538 27288,10564 C 27288,10570 27282,10576 27269,10583 L 26700,10583 C 26693,10583 26688,10576 26681,10564 L 26681,10538 26744,10494 C 26760,10494 26774,10466 26789,10411 L 26782,10334 26782,8609 C 26782,8586 26784,8557 26789,8521 26777,8436 26744,8393 26688,8393 L 26681,8380 26681,8368 C 26681,8343 26692,8329 26712,8329 26875,8322 26992,8317 27067,8317 Z M 27238,8641 L 27181,8641 C 27181,8649 27179,8654 27174,8654 L 27181,8685 27181,9476 27174,9539 27187,9545 27225,9545 C 27369,9545 27440,9416 27440,9157 L 27440,9037 C 27440,8820 27383,8690 27269,8647 27261,8643 27251,8641 27238,8641 Z "/>
        </g>
       </g>
       <g class="com.sun.star.drawing.ClosedBezierShape">
        <g id="id15">
         <rect class="BoundingBox" stroke="none" fill="none" x="27992" y="8317" width="1165" height="2267"/>
         <path fill="rgb(153,0,31)" stroke="none" d="M 28580,8317 C 28822,8317 28990,8472 29086,8781 29132,8965 29156,9150 29156,9339 L 29156,9479 C 29156,10214 28961,10583 28574,10583 28186,10583 27992,10187 27992,9396 27992,8810 28129,8461 28403,8348 28461,8328 28521,8317 28580,8317 Z M 28378,9218 C 28378,9226 28379,9231 28384,9231 28379,9274 28378,9305 28378,9325 L 28378,9498 C 28378,9522 28379,9557 28384,9599 28379,9607 28378,9614 28378,9618 28395,9914 28417,10091 28447,10151 28480,10227 28516,10265 28555,10265 L 28605,10265 C 28696,10265 28751,10078 28770,9707 28770,9702 28768,9700 28763,9700 28763,9697 28765,9684 28770,9662 28770,9610 28772,9523 28776,9402 28772,9299 28770,9221 28770,9167 L 28763,9155 28770,9142 C 28754,8923 28731,8779 28700,8710 28670,8665 28636,8635 28599,8622 L 28580,8622 C 28475,8622 28411,8761 28391,9041 28391,9079 28386,9138 28378,9218 Z "/>
        </g>
       </g>
       <g class="com.sun.star.drawing.ClosedBezierShape">
        <g id="id16">
         <rect class="BoundingBox" stroke="none" fill="none" x="29291" y="8317" width="1102" height="2267"/>
         <path fill="rgb(153,0,31)" stroke="none" d="M 29310,8317 L 29860,8317 C 29885,8317 29898,8329 29898,8355 L 29898,8361 C 29898,8369 29871,8387 29816,8413 29796,8442 29784,8469 29784,8496 L 29784,10238 30195,10238 C 30248,10238 30295,10201 30341,10129 30374,10132 30392,10138 30392,10150 30342,10438 30311,10583 30296,10583 30254,10583 30233,10578 30233,10570 30170,10575 30124,10576 30094,10576 L 29310,10576 C 29303,10576 29298,10570 29291,10557 L 29291,10526 29367,10474 C 29384,10459 29392,10438 29392,10411 L 29392,8477 C 29392,8426 29361,8391 29298,8374 L 29291,8361 29291,8336 C 29291,8329 29298,8324 29310,8317 Z "/>
        </g>
       </g>
       <g class="com.sun.star.drawing.ClosedBezierShape">
        <g id="id17">
         <rect class="BoundingBox" stroke="none" fill="none" x="30527" y="8324" width="1076" height="2260"/>
         <path fill="rgb(153,0,31)" stroke="none" d="M 31508,8324 C 31545,8503 31572,8642 31590,8745 31556,8754 31539,8760 31539,8764 31534,8764 31512,8738 31475,8686 31461,8673 31442,8662 31419,8654 L 31343,8661 31065,8661 31020,8654 31014,8667 31014,9183 31311,9183 C 31408,9178 31456,9146 31456,9088 L 31475,9075 31508,9075 C 31513,9075 31520,9081 31526,9094 L 31526,9590 C 31526,9597 31520,9603 31508,9609 L 31475,9609 C 31468,9609 31455,9584 31437,9533 31409,9513 31376,9502 31336,9502 L 31020,9502 31020,10246 31387,10246 C 31450,10246 31503,10210 31545,10138 31572,10138 31591,10145 31602,10163 31559,10404 31532,10545 31520,10583 31487,10571 31450,10564 31412,10564 L 30546,10564 C 30539,10564 30534,10558 30527,10545 L 30527,10520 C 30527,10512 30551,10500 30597,10482 30617,10449 30628,10422 30628,10399 L 30628,8496 C 30628,8444 30597,8410 30534,8394 L 30527,8381 30527,8355 C 30527,8350 30534,8343 30546,8336 L 31406,8336 C 31468,8329 31501,8324 31508,8324 Z "/>
        </g>
       </g>
       <g class="com.sun.star.drawing.ClosedBezierShape">
        <g id="id18">
         <rect class="BoundingBox" stroke="none" fill="none" x="31737" y="8317" width="1336" height="2267"/>
         <path fill="rgb(153,0,31)" stroke="none" d="M 31756,8317 L 32199,8317 C 32224,8317 32237,8341 32237,8387 32257,8469 32340,8673 32483,9000 32545,9147 32580,9226 32591,9236 L 32597,9236 32597,8470 C 32597,8431 32561,8396 32489,8368 L 32489,8355 C 32489,8329 32502,8317 32527,8317 L 33034,8317 C 33059,8317 33072,8329 33072,8355 33072,8369 33046,8389 32996,8413 32975,8442 32964,8467 32964,8489 L 32964,10423 C 32964,10472 32989,10509 33040,10532 33044,10532 33046,10534 33046,10538 L 33046,10564 C 33046,10570 33040,10576 33027,10583 L 32629,10583 32597,10576 32597,10009 C 32359,9456 32232,9174 32218,9166 L 32211,9166 32211,10430 C 32211,10472 32244,10505 32312,10532 32317,10540 32319,10548 32319,10557 L 32319,10564 C 32319,10570 32312,10576 32300,10583 L 31756,10583 C 31749,10583 31744,10576 31737,10564 L 31737,10538 31813,10486 C 31830,10472 31838,10452 31838,10423 L 31838,8483 C 31838,8434 31805,8394 31737,8368 L 31737,8336 C 31737,8329 31744,8324 31756,8317 Z "/>
        </g>
       </g>
      </g>
      <g class="Group">
       <g class="Group">
        <g class="com.sun.star.drawing.ClosedBezierShape">
         <g id="id19">
          <rect class="BoundingBox" stroke="none" fill="none" x="660" y="762" width="1177" height="2010"/>
          <path fill="rgb(153,0,31)" stroke="none" d="M 1169,762 C 1428,762 1606,858 1702,1050 1743,1142 1765,1247 1765,1362 1765,1610 1695,1775 1553,1860 1547,1869 1546,1877 1546,1883 1645,2428 1724,2700 1781,2700 1818,2718 1835,2730 1835,2740 L 1835,2747 C 1835,2755 1828,2763 1812,2771 L 1428,2771 C 1391,2771 1368,2725 1358,2638 1305,2391 1269,2165 1248,1962 L 1107,1962 1107,2616 C 1107,2668 1136,2704 1193,2724 1199,2734 1201,2743 1201,2755 L 1177,2771 683,2771 C 676,2771 668,2763 660,2747 L 660,2740 C 723,2698 754,2668 754,2653 760,2626 762,2602 762,2585 L 762,964 C 762,882 733,841 676,841 L 660,817 C 660,780 831,762 1169,762 Z M 1107,1066 L 1107,1689 1209,1689 C 1324,1689 1389,1599 1404,1416 L 1404,1307 C 1404,1160 1336,1076 1201,1050 L 1123,1050 C 1113,1053 1107,1056 1107,1066 Z "/>
         </g>
        </g>
        <g class="com.sun.star.drawing.ClosedBezierShape">
         <g id="id20">
          <rect class="BoundingBox" stroke="none" fill="none" x="2030" y="763" width="1045" height="2009"/>
          <path fill="rgb(153,0,31)" stroke="none" d="M 2564,764 C 2815,764 2977,964 3050,1364 3066,1523 3073,1644 3073,1728 3073,2423 2899,2771 2548,2771 2203,2771 2031,2419 2031,1720 2031,1083 2209,764 2564,764 Z M 2375,1573 C 2375,1579 2378,1581 2384,1581 L 2375,1635 2375,1845 2384,1892 C 2378,1902 2375,1908 2375,1914 2375,2210 2416,2398 2501,2482 L 2540,2490 2572,2490 C 2676,2490 2728,2235 2728,1728 L 2728,1712 C 2728,1262 2673,1037 2564,1037 L 2540,1037 C 2464,1037 2413,1156 2384,1393 2384,1432 2381,1492 2375,1573 Z "/>
         </g>
        </g>
        <g class="com.sun.star.drawing.ClosedBezierShape">
         <g id="id21">
          <rect class="BoundingBox" stroke="none" fill="none" x="3218" y="763" width="982" height="2009"/>
          <path fill="rgb(153,0,31)" stroke="none" d="M 3242,764 L 3736,764 C 3744,764 3751,771 3760,787 L 3760,803 C 3703,838 3669,870 3658,897 L 3658,2457 C 3659,2467 3664,2473 3673,2473 L 4010,2473 C 4067,2473 4118,2439 4159,2371 L 4167,2371 C 4188,2378 4198,2387 4198,2394 4188,2486 4161,2612 4120,2771 4059,2765 4014,2762 3986,2762 L 3242,2762 C 3235,2762 3226,2755 3219,2739 L 3219,2731 C 3281,2690 3312,2655 3312,2622 L 3312,920 C 3312,866 3281,828 3219,811 L 3219,787 C 3219,780 3226,771 3242,764 Z "/>
         </g>
        </g>
        <g class="com.sun.star.drawing.ClosedBezierShape">
         <g id="id22">
          <rect class="BoundingBox" stroke="none" fill="none" x="4343" y="763" width="982" height="2009"/>
          <path fill="rgb(153,0,31)" stroke="none" d="M 4367,764 L 4861,764 C 4869,764 4876,771 4885,787 L 4885,803 C 4828,838 4794,870 4783,897 L 4783,2457 C 4784,2467 4789,2473 4798,2473 L 5135,2473 C 5192,2473 5243,2439 5284,2371 L 5292,2371 C 5313,2378 5323,2387 5323,2394 5313,2486 5286,2612 5245,2771 5184,2765 5139,2762 5111,2762 L 4367,2762 C 4359,2762 4351,2755 4344,2739 L 4344,2731 C 4406,2690 4437,2655 4437,2622 L 4437,920 C 4437,866 4406,828 4344,811 L 4344,787 C 4344,780 4351,771 4367,764 Z "/>
         </g>
        </g>
        <g class="com.sun.star.drawing.ClosedBezierShape">
         <g id="id23">
          <rect class="BoundingBox" stroke="none" fill="none" x="5469" y="763" width="848" height="2009"/>
          <path fill="rgb(153,0,31)" stroke="none" d="M 5830,764 L 5948,764 C 5967,764 6037,774 6159,796 6198,786 6221,780 6230,780 6267,993 6284,1111 6284,1134 6267,1146 6251,1152 6237,1152 L 6221,1152 C 6221,1103 6161,1066 6042,1040 L 5955,1040 C 5883,1040 5836,1085 5814,1175 L 5814,1246 C 5814,1332 5894,1467 6057,1650 6230,1855 6316,2047 6316,2225 L 6316,2234 C 6316,2484 6221,2653 6034,2739 5969,2760 5914,2771 5869,2771 L 5791,2771 5587,2739 C 5583,2739 5561,2741 5525,2747 5493,2607 5477,2470 5477,2336 5487,2330 5497,2327 5509,2327 L 5516,2327 C 5566,2439 5643,2494 5751,2494 L 5806,2494 C 5926,2470 5986,2410 5986,2312 L 5986,2194 C 5986,2102 5863,1914 5618,1632 5519,1472 5469,1334 5469,1222 5469,981 5589,828 5830,764 Z "/>
         </g>
        </g>
        <g class="com.sun.star.drawing.ClosedBezierShape">
         <g id="id24">
          <rect class="BoundingBox" stroke="none" fill="none" x="6460" y="762" width="1037" height="2010"/>
          <path fill="rgb(153,0,31)" stroke="none" d="M 6837,762 L 6868,762 C 7172,762 7368,899 7456,1175 7481,1293 7495,1387 7495,1458 7495,1911 7297,2137 6900,2137 L 6900,2614 C 6900,2671 6933,2709 7002,2731 L 7002,2747 C 7002,2755 6993,2763 6977,2771 L 6484,2771 C 6476,2771 6468,2763 6461,2747 L 6461,2740 C 6523,2698 6554,2663 6554,2629 L 6554,943 C 6554,888 6525,848 6468,825 6462,815 6461,806 6461,794 6461,776 6586,764 6837,762 Z M 6900,1068 L 6900,1848 6977,1848 C 7069,1848 7121,1744 7135,1536 L 7135,1395 C 7135,1211 7088,1099 6993,1060 L 6947,1053 6915,1053 C 6906,1054 6900,1058 6900,1068 Z "/>
         </g>
        </g>
        <g class="com.sun.star.drawing.ClosedBezierShape">
         <g id="id25">
          <rect class="BoundingBox" stroke="none" fill="none" x="7640" y="763" width="958" height="2009"/>
          <path fill="rgb(153,0,31)" stroke="none" d="M 8518,764 C 8566,995 8589,1120 8589,1140 8572,1150 8556,1156 8542,1156 8505,1099 8471,1069 8440,1069 L 8080,1069 8080,1532 8369,1532 C 8423,1532 8461,1501 8487,1438 L 8511,1438 C 8518,1438 8527,1446 8534,1462 L 8534,1892 C 8534,1908 8524,1916 8503,1916 8489,1916 8474,1892 8455,1845 8435,1824 8407,1814 8378,1814 L 8095,1814 C 8086,1816 8080,1820 8080,1830 L 8080,2473 8464,2473 C 8516,2435 8542,2408 8542,2387 L 8581,2387 C 8591,2387 8597,2394 8597,2410 8566,2612 8544,2733 8534,2771 L 8440,2762 7664,2762 C 7651,2762 7642,2753 7641,2731 7641,2721 7664,2702 7711,2676 7727,2657 7734,2633 7734,2606 L 7734,929 C 7734,879 7709,846 7657,827 7647,827 7641,821 7641,811 L 7641,803 C 7641,796 7648,787 7664,780 L 8424,780 C 8450,780 8481,774 8518,764 Z "/>
         </g>
        </g>
        <g class="com.sun.star.drawing.ClosedBezierShape">
         <g id="id26">
          <rect class="BoundingBox" stroke="none" fill="none" x="8742" y="763" width="981" height="2009"/>
          <path fill="rgb(153,0,31)" stroke="none" d="M 8766,764 L 9259,764 C 9268,764 9275,771 9283,787 L 9283,803 C 9227,838 9193,870 9181,897 L 9181,2457 C 9183,2467 9187,2473 9197,2473 L 9534,2473 C 9590,2473 9641,2439 9682,2371 L 9691,2371 C 9712,2378 9722,2387 9722,2394 9712,2486 9685,2612 9644,2771 9583,2765 9538,2762 9510,2762 L 8766,2762 C 8758,2762 8750,2755 8742,2739 L 8742,2731 C 8805,2690 8836,2655 8836,2622 L 8836,920 C 8836,866 8805,828 8742,811 L 8742,787 C 8742,780 8750,771 8766,764 Z "/>
         </g>
        </g>
        <g class="com.sun.star.drawing.ClosedBezierShape">
         <g id="id27">
          <rect class="BoundingBox" stroke="none" fill="none" x="9868" y="763" width="848" height="2009"/>
          <path fill="rgb(153,0,31)" stroke="none" d="M 10229,764 L 10347,764 C 10366,764 10436,774 10558,796 10597,786 10620,780 10628,780 10665,993 10683,1111 10683,1134 10665,1146 10650,1152 10636,1152 L 10620,1152 C 10620,1103 10560,1066 10440,1040 L 10354,1040 C 10281,1040 10235,1085 10213,1175 L 10213,1246 C 10213,1332 10293,1467 10456,1650 10628,1855 10715,2047 10715,2225 L 10715,2234 C 10715,2484 10620,2653 10433,2739 10367,2760 10313,2771 10268,2771 L 10189,2771 9986,2739 C 9982,2739 9960,2741 9923,2747 9892,2607 9876,2470 9876,2336 9886,2330 9896,2327 9907,2327 L 9915,2327 C 9964,2439 10042,2494 10150,2494 L 10205,2494 C 10325,2470 10385,2410 10385,2312 L 10385,2194 C 10385,2102 10262,1914 10017,1632 9918,1472 9868,1334 9868,1222 9868,981 9988,828 10229,764 Z "/>
         </g>
        </g>
        <g class="com.sun.star.drawing.ClosedBezierShape">
         <g id="id28">
          <rect class="BoundingBox" stroke="none" fill="none" x="10859" y="762" width="1036" height="2010"/>
          <path fill="rgb(153,0,31)" stroke="none" d="M 11236,762 L 11267,762 C 11570,762 11767,899 11855,1175 11880,1293 11894,1387 11894,1458 11894,1911 11696,2137 11298,2137 L 11298,2614 C 11298,2671 11332,2709 11400,2731 L 11400,2747 C 11400,2755 11392,2763 11376,2771 L 10883,2771 C 10875,2771 10867,2763 10859,2747 L 10859,2740 C 10922,2698 10953,2663 10953,2629 L 10953,943 C 10953,888 10924,848 10867,825 10861,815 10859,806 10859,794 10859,776 10985,764 11236,762 Z M 11298,1068 L 11298,1848 11376,1848 C 11468,1848 11519,1744 11533,1536 L 11533,1395 C 11533,1211 11487,1099 11392,1060 L 11345,1053 11313,1053 C 11304,1054 11298,1058 11298,1068 Z "/>
         </g>
        </g>
        <g class="com.sun.star.drawing.ClosedBezierShape">
         <g id="id29">
          <rect class="BoundingBox" stroke="none" fill="none" x="12088" y="763" width="1045" height="2009"/>
          <path fill="rgb(153,0,31)" stroke="none" d="M 12622,764 C 12873,764 13035,964 13108,1364 13123,1523 13131,1644 13131,1728 13131,2423 12957,2771 12606,2771 12261,2771 12089,2419 12089,1720 12089,1083 12267,764 12622,764 Z M 12433,1573 C 12433,1579 12436,1581 12442,1581 L 12433,1635 12433,1845 12442,1892 C 12436,1902 12433,1908 12433,1914 12433,2210 12474,2398 12559,2482 L 12598,2490 12630,2490 C 12734,2490 12786,2235 12786,1728 L 12786,1712 C 12786,1262 12731,1037 12622,1037 L 12598,1037 C 12522,1037 12471,1156 12442,1393 12442,1432 12439,1492 12433,1573 Z "/>
         </g>
        </g>
        <g class="com.sun.star.drawing.ClosedBezierShape">
         <g id="id30">
          <rect class="BoundingBox" stroke="none" fill="none" x="13325" y="763" width="1045" height="2009"/>
          <path fill="rgb(153,0,31)" stroke="none" d="M 13859,764 C 14110,764 14272,964 14345,1364 14361,1523 14368,1644 14368,1728 14368,2423 14194,2771 13843,2771 13498,2771 13326,2419 13326,1720 13326,1083 13504,764 13859,764 Z M 13671,1573 C 13671,1579 13673,1581 13679,1581 L 13671,1635 13671,1845 13679,1892 C 13673,1902 13671,1908 13671,1914 13671,2210 13712,2398 13796,2482 L 13835,2490 13867,2490 C 13971,2490 14023,2235 14023,1728 L 14023,1712 C 14023,1262 13968,1037 13859,1037 L 13835,1037 C 13759,1037 13708,1156 13679,1393 13679,1432 13676,1492 13671,1573 Z "/>
         </g>
        </g>
        <g class="com.sun.star.drawing.ClosedBezierShape">
         <g id="id31">
          <rect class="BoundingBox" stroke="none" fill="none" x="14513" y="763" width="982" height="2009"/>
          <path fill="rgb(153,0,31)" stroke="none" d="M 14537,764 L 15031,764 C 15039,764 15046,771 15055,787 L 15055,803 C 14998,838 14964,870 14953,897 L 14953,2457 C 14954,2467 14959,2473 14968,2473 L 15305,2473 C 15362,2473 15413,2439 15454,2371 L 15462,2371 C 15483,2378 15493,2387 15493,2394 15483,2486 15456,2612 15415,2771 15354,2765 15309,2762 15281,2762 L 14537,2762 C 14530,2762 14521,2755 14514,2739 L 14514,2731 C 14576,2690 14607,2655 14607,2622 L 14607,920 C 14607,866 14576,828 14514,811 L 14514,787 C 14514,780 14521,771 14537,764 Z "/>
         </g>
        </g>
        <g class="com.sun.star.drawing.ClosedBezierShape">
         <g id="id32">
          <rect class="BoundingBox" stroke="none" fill="none" x="15639" y="763" width="958" height="2009"/>
          <path fill="rgb(153,0,31)" stroke="none" d="M 16517,764 C 16565,995 16588,1120 16588,1140 16570,1150 16554,1156 16541,1156 16503,1099 16470,1069 16439,1069 L 16079,1069 16079,1532 16368,1532 C 16422,1532 16460,1501 16486,1438 L 16509,1438 C 16517,1438 16525,1446 16533,1462 L 16533,1892 C 16533,1908 16523,1916 16502,1916 16488,1916 16473,1892 16454,1845 16433,1824 16406,1814 16376,1814 L 16094,1814 C 16084,1816 16079,1820 16079,1830 L 16079,2473 16462,2473 C 16515,2435 16541,2408 16541,2387 L 16580,2387 C 16590,2387 16595,2394 16595,2410 16565,2612 16543,2733 16533,2771 L 16439,2762 15663,2762 C 15649,2762 15641,2753 15639,2731 15639,2721 15663,2702 15710,2676 15726,2657 15733,2633 15733,2606 L 15733,929 C 15733,879 15708,846 15655,827 15645,827 15639,821 15639,811 L 15639,803 C 15639,796 15647,787 15663,780 L 16423,780 C 16448,780 16480,774 16517,764 Z "/>
         </g>
        </g>
        <g class="com.sun.star.drawing.ClosedBezierShape">
         <g id="id33">
          <rect class="BoundingBox" stroke="none" fill="none" x="16741" y="763" width="1193" height="2009"/>
          <path fill="rgb(153,0,31)" stroke="none" d="M 16764,764 L 17164,764 C 17180,764 17194,811 17204,905 17237,970 17335,1191 17493,1571 L 17509,1571 17509,905 C 17509,872 17478,837 17415,796 L 17415,787 C 17415,780 17423,771 17439,764 L 17909,764 C 17916,764 17925,771 17932,787 L 17932,796 C 17869,837 17838,874 17838,905 L 17838,2629 C 17838,2670 17862,2704 17909,2731 L 17909,2747 C 17909,2755 17901,2762 17885,2771 L 17532,2771 C 17525,2771 17517,2762 17509,2747 L 17509,2261 C 17399,1994 17288,1746 17172,1516 L 17164,1516 17164,2629 C 17164,2664 17195,2698 17258,2731 L 17258,2755 17235,2771 16764,2771 C 16751,2771 16743,2760 16741,2739 16741,2730 16764,2709 16811,2684 16827,2664 16835,2641 16835,2613 L 16835,920 C 16835,870 16804,831 16741,803 L 16741,787 C 16741,780 16749,771 16764,764 Z "/>
         </g>
        </g>
       </g>
       <g class="Group">
        <g class="com.sun.star.drawing.ClosedBezierShape">
         <g id="id34">
          <rect class="BoundingBox" stroke="none" fill="none" x="18708" y="757" width="926" height="2014"/>
          <path fill="rgb(153,0,31)" stroke="none" d="M 19303,757 C 19415,767 19480,773 19499,773 L 19563,773 C 19576,773 19600,888 19632,1118 19630,1139 19609,1148 19570,1148 19570,1090 19508,1053 19382,1040 L 19351,1040 C 19212,1040 19120,1190 19077,1493 19067,1568 19061,1648 19061,1736 L 19061,1767 C 19061,2258 19157,2503 19351,2503 L 19390,2503 C 19478,2503 19538,2470 19570,2402 19570,2380 19576,2370 19586,2370 19616,2376 19632,2384 19632,2393 19623,2487 19601,2611 19570,2762 19501,2768 19544,2749 19465,2750 19385,2752 19394,2769 19217,2770 19013,2770 18861,2597 18763,2252 18727,2114 18708,1965 18708,1807 L 18708,1720 C 18724,1222 18860,914 19116,796 19188,771 19251,757 19303,757 Z "/>
         </g>
        </g>
        <g class="com.sun.star.drawing.ClosedBezierShape">
         <g id="id35">
          <rect class="BoundingBox" stroke="none" fill="none" x="19826" y="764" width="1044" height="2007"/>
          <path fill="rgb(153,0,31)" stroke="none" d="M 20359,765 C 20610,765 20772,964 20845,1364 20860,1522 20868,1644 20868,1728 20868,2423 20694,2769 20344,2769 19999,2769 19827,2419 19827,1720 19827,1084 20005,765 20359,765 Z M 20171,1573 C 20171,1579 20174,1581 20179,1581 L 20171,1636 20171,1845 20179,1892 C 20174,1902 20171,1908 20171,1914 20171,2209 20212,2398 20297,2482 L 20336,2490 20367,2490 C 20471,2490 20524,2235 20524,1728 L 20524,1712 C 20524,1262 20469,1037 20359,1037 L 20336,1037 C 20260,1037 20209,1156 20179,1393 20179,1432 20177,1493 20171,1573 Z "/>
         </g>
        </g>
        <g class="com.sun.star.drawing.ClosedBezierShape">
         <g id="id36">
          <rect class="BoundingBox" stroke="none" fill="none" x="21013" y="764" width="1513" height="2007"/>
          <path fill="rgb(153,0,31)" stroke="none" d="M 21037,765 L 21483,765 21506,781 21498,796 21498,820 C 21498,880 21583,1137 21749,1589 21759,1640 21769,1665 21780,1665 21953,1168 22039,892 22039,836 L 22039,788 C 22039,781 22047,773 22062,765 L 22501,765 C 22509,765 22517,773 22524,788 L 22524,804 C 22461,843 22431,879 22431,912 L 22431,2615 C 22431,2667 22461,2705 22524,2722 L 22524,2746 C 22524,2753 22517,2761 22501,2769 L 22008,2769 C 22000,2769 21992,2761 21984,2746 L 21984,2730 C 22037,2697 22062,2675 22062,2667 22066,2648 22072,2638 22078,2638 22072,2577 22070,2533 22070,2505 L 22070,1597 C 22057,1597 21972,1843 21820,2335 L 21780,2343 21749,2343 C 21712,2343 21681,2286 21655,2170 21650,2165 21585,1971 21460,1589 L 21444,1589 21444,2615 C 21444,2664 21475,2701 21538,2730 L 21538,2753 21514,2769 21037,2769 C 21029,2769 21021,2761 21013,2746 L 21013,2730 21099,2667 21107,2631 21107,904 C 21107,863 21076,831 21013,812 L 21013,788 C 21013,781 21021,773 21037,765 Z "/>
         </g>
        </g>
        <g class="com.sun.star.drawing.ClosedBezierShape">
         <g id="id37">
          <rect class="BoundingBox" stroke="none" fill="none" x="22670" y="763" width="1036" height="2008"/>
          <path fill="rgb(153,0,31)" stroke="none" d="M 23046,763 L 23078,763 C 23382,763 23577,900 23665,1176 23691,1294 23704,1387 23704,1458 23704,1910 23507,2137 23109,2137 L 23109,2613 C 23109,2670 23143,2709 23211,2730 L 23211,2746 C 23211,2754 23203,2762 23187,2770 L 22694,2770 C 22687,2770 22679,2762 22671,2746 L 22671,2738 C 22734,2697 22765,2662 22765,2629 L 22765,943 C 22765,888 22736,849 22679,826 22673,816 22671,806 22671,795 22671,777 22796,765 23046,763 Z M 23109,1069 L 23109,1848 23187,1848 C 23279,1848 23330,1744 23344,1536 L 23344,1395 C 23344,1211 23297,1100 23203,1061 L 23156,1053 23125,1053 C 23115,1055 23109,1059 23109,1069 Z "/>
         </g>
        </g>
        <g class="com.sun.star.drawing.ClosedBezierShape">
         <g id="id38">
          <rect class="BoundingBox" stroke="none" fill="none" x="23849" y="764" width="958" height="2007"/>
          <path fill="rgb(153,0,31)" stroke="none" d="M 24727,765 C 24774,996 24797,1121 24797,1141 24780,1150 24764,1156 24750,1156 24713,1099 24680,1070 24648,1070 L 24288,1070 24288,1532 24578,1532 C 24631,1532 24670,1501 24696,1438 L 24719,1438 C 24727,1438 24734,1446 24742,1462 L 24742,1892 C 24742,1908 24732,1916 24711,1916 24697,1916 24682,1892 24664,1845 24642,1824 24615,1814 24586,1814 L 24304,1814 C 24294,1816 24288,1820 24288,1830 L 24288,2472 24672,2472 C 24725,2435 24750,2407 24750,2386 L 24789,2386 C 24799,2386 24805,2393 24805,2409 24774,2611 24752,2732 24742,2769 L 24648,2761 23873,2761 C 23860,2761 23852,2751 23850,2730 23850,2720 23873,2701 23920,2675 23936,2656 23944,2632 23944,2605 L 23944,929 C 23944,880 23918,847 23866,828 23856,828 23850,822 23850,812 L 23850,804 C 23850,796 23858,788 23873,781 L 24633,781 C 24658,781 24690,775 24727,765 Z "/>
         </g>
        </g>
        <g class="com.sun.star.drawing.ClosedBezierShape">
         <g id="id39">
          <rect class="BoundingBox" stroke="none" fill="none" x="24950" y="764" width="1192" height="2007"/>
          <path fill="rgb(153,0,31)" stroke="none" d="M 24974,765 L 25373,765 C 25389,765 25402,812 25412,906 25446,971 25543,1191 25702,1571 L 25717,1571 25717,906 C 25717,873 25686,837 25624,796 L 25624,788 C 25624,781 25631,773 25647,765 L 26117,765 C 26124,765 26132,773 26140,788 L 26140,796 C 26078,837 26046,874 26046,906 L 26046,2628 C 26046,2669 26070,2702 26117,2730 L 26117,2746 C 26117,2753 26109,2761 26094,2769 L 25741,2769 C 25733,2769 25725,2761 25717,2746 L 25717,2260 C 25608,1994 25496,1745 25381,1516 L 25373,1516 25373,2628 C 25373,2664 25405,2697 25467,2730 L 25467,2753 25443,2769 24974,2769 C 24960,2769 24952,2759 24950,2738 24950,2728 24974,2709 25020,2683 25036,2664 25044,2640 25044,2612 L 25044,922 C 25044,871 25013,831 24950,804 L 24950,788 C 24950,781 24958,773 24974,765 Z "/>
         </g>
        </g>
        <g class="com.sun.star.drawing.ClosedBezierShape">
         <g id="id40">
          <rect class="BoundingBox" stroke="none" fill="none" x="26285" y="764" width="1130" height="2007"/>
          <path fill="rgb(153,0,31)" stroke="none" d="M 26435,765 L 26858,765 C 27032,765 27176,861 27296,1053 27374,1219 27414,1403 27414,1605 L 27414,1806 C 27403,2300 27274,2603 27022,2715 26899,2751 26804,2769 26740,2769 L 26685,2761 26584,2761 C 26386,2761 26286,2748 26286,2722 L 26286,2715 26372,2652 26380,2615 26380,912 C 26380,873 26349,841 26286,820 L 26286,796 C 26286,775 26335,765 26435,765 Z M 26818,1045 L 26732,1045 26732,2474 26795,2474 C 26908,2474 26985,2387 27022,2217 27043,2082 27055,1912 27061,1704 27061,1264 26981,1045 26818,1045 Z "/>
         </g>
        </g>
        <g class="com.sun.star.drawing.ClosedBezierShape">
         <g id="id41">
          <rect class="BoundingBox" stroke="none" fill="none" x="27559" y="763" width="550" height="2008"/>
          <path fill="rgb(153,0,31)" stroke="none" d="M 27607,763 L 28084,763 C 28092,763 28100,771 28107,787 L 28107,802 28022,865 28014,904 28014,2615 C 28014,2664 28045,2701 28107,2730 L 28107,2754 28084,2770 27583,2770 C 27569,2770 27561,2759 27559,2738 27559,2724 27583,2709 27630,2691 27651,2667 27661,2632 27661,2583 L 27661,949 C 27661,861 27630,818 27567,818 27567,812 27565,804 27559,795 27565,773 27581,763 27607,763 Z "/>
         </g>
        </g>
        <g class="com.sun.star.drawing.ClosedBezierShape">
         <g id="id42">
          <rect class="BoundingBox" stroke="none" fill="none" x="28252" y="767" width="1184" height="2004"/>
          <path fill="rgb(153,0,31)" stroke="none" d="M 28276,767 L 28730,767 C 28761,767 28776,781 28776,807 28714,828 28683,865 28683,916 L 28683,2341 C 28697,2435 28743,2482 28824,2482 L 28870,2482 C 28970,2468 29019,2421 29019,2341 L 29019,916 C 29019,869 28990,832 28933,807 L 28933,775 28972,767 29410,767 C 29418,767 29426,775 29434,791 L 29434,799 C 29378,836 29348,869 29348,900 L 29348,2404 C 29358,2478 29364,2517 29364,2521 29185,2687 29009,2770 28839,2770 28657,2770 28485,2681 28322,2505 L 28322,2497 C 28332,2464 28338,2441 28338,2427 L 28338,900 C 28338,871 28309,837 28252,799 L 28252,791 C 28252,783 28260,775 28276,767 Z "/>
         </g>
        </g>
        <g class="com.sun.star.drawing.ClosedBezierShape">
         <g id="id43">
          <rect class="BoundingBox" stroke="none" fill="none" x="29579" y="764" width="1514" height="2007"/>
          <path fill="rgb(153,0,31)" stroke="none" d="M 29603,765 L 30050,765 30073,781 30065,796 30065,820 C 30065,880 30150,1137 30316,1589 30326,1640 30335,1665 30347,1665 30519,1168 30605,892 30605,836 L 30605,788 C 30605,781 30613,773 30629,765 L 31067,765 C 31075,765 31083,773 31091,788 L 31091,804 C 31028,843 30997,879 30997,912 L 30997,2615 C 30997,2667 31028,2705 31091,2722 L 31091,2746 C 31091,2753 31083,2761 31067,2769 L 30574,2769 C 30567,2769 30559,2761 30551,2746 L 30551,2730 C 30603,2697 30629,2675 30629,2667 30633,2648 30639,2638 30645,2638 30639,2577 30637,2533 30637,2505 L 30637,1597 C 30623,1597 30539,1843 30386,2335 L 30347,2343 30316,2343 C 30279,2343 30247,2286 30222,2170 30216,2165 30152,1971 30026,1589 L 30011,1589 30011,2615 C 30011,2664 30042,2701 30104,2730 L 30104,2753 30081,2769 29603,2769 C 29596,2769 29588,2761 29580,2746 L 29580,2730 29666,2667 29674,2631 29674,904 C 29674,863 29643,831 29580,812 L 29580,788 C 29580,781 29588,773 29603,765 Z "/>
         </g>
        </g>
       </g>
      </g>
     </g>
    </g>
   </g>
  </g>
 </g>
</svg>